<?xml version="1.0" encoding="UTF-8"?>
<svg width="135" height="40" viewBox="0 0 135 40" fill="none" xmlns="http://www.w3.org/2000/svg">
  <rect width="135" height="40" rx="5" fill="black"/>
  <path d="M27.5 20.3c-.1-1.1.3-2.2 1.1-3-.4-.6-1-1-1.7-1.2-.7-.2-1.4-.2-2.1 0-.7.2-1.4.2-2.1 0-.7-.2-1.4-.2-2.1 0-.7.2-1.3.6-1.7 1.2-.9 1.3-1.1 3-.6 4.5.5 1.5 1.5 2.7 2.9 3.4.6.3 1.3.4 1.9.2.6-.2 1.3-.2 1.9 0 .6.2 1.3.1 1.9-.2 1.4-.7 2.4-1.9 2.9-3.4-.8-.4-1.3-1.2-1.3-2.1z" fill="white"/>
  <path d="M24.8 13.4c.6-.7.9-1.6.8-2.5-.9.1-1.7.5-2.3 1.2-.6.7-.9 1.6-.8 2.5.9-.1 1.7-.5 2.3-1.2z" fill="white"/>
  <path d="M47.6 27.8h-2.7l-1.5-4.7h-5.2l-1.4 4.7h-2.6l5.1-15.9h3.2l5.1 15.9zm-4.7-6.6l-1.4-4.2c-.1-.4-.3-1.2-.7-2.3h-.1c-.1.5-.3 1.3-.6 2.3l-1.3 4.2h4.1zm9.4 6.8c-1.8 0-3.2-.5-4.2-1.6-1-1.1-1.5-2.6-1.5-4.5 0-2 .5-3.5 1.6-4.7 1.1-1.1 2.5-1.7 4.4-1.7 1.7 0 3.1.5 4 1.5.9 1 1.4 2.4 1.4 4.1v1.2h-8.7c0 1.2.3 2.2 1 2.8.7.7 1.6 1 2.7 1 1.2 0 2.4-.3 3.6-.8v2c-.6.3-1.1.5-1.7.6-.6.1-1.3.1-2 .1zm-.5-10.5c-.9 0-1.6.3-2.1.8-.5.5-.9 1.3-1 2.3h5.9c0-1-.3-1.8-.8-2.3-.5-.5-1.2-.8-2-.8zm14.4 10.3h-2.4v-7.5c0-.9-.2-1.6-.6-2.1-.4-.4-1-.7-1.8-.7-.9 0-1.6.3-2.1.8-.5.5-.7 1.4-.7 2.7v6.8h-2.4V17.7h1.8l.3 1.5h.1c.4-.5.9-1 1.5-1.3.7-.3 1.4-.4 2.1-.4 2.8 0 4.2 1.4 4.2 4.3v6zm11.3 0h-2.4v-7.5c0-.9-.2-1.6-.6-2.1-.4-.4-1-.7-1.8-.7-.9 0-1.6.3-2.1.8-.5.5-.7 1.4-.7 2.7v6.8h-2.4V17.7h1.8l.3 1.5h.1c.4-.5.9-1 1.5-1.3.7-.3 1.4-.4 2.1-.4 2.8 0 4.2 1.4 4.2 4.3v6zm11.3-8c0 1.9-.5 3.4-1.6 4.5-1.1 1.1-2.5 1.6-4.4 1.6-1.2 0-2.2-.3-3.1-.8-.9-.5-1.6-1.3-2.1-2.2-.5-1-.7-2.1-.7-3.3 0-1.9.5-3.4 1.6-4.5s2.5-1.6 4.4-1.6c1.8 0 3.3.5 4.3 1.6 1 1.1 1.6 2.6 1.6 4.7zm-9.2 0c0 2.7 1.1 4.1 3.2 4.1 2.1 0 3.1-1.4 3.1-4.1 0-2.7-1-4-3.1-4-1.1 0-1.9.3-2.4 1-.6.7-.8 1.7-.8 3zm15.9 8.2c-1.5 0-2.7-.6-3.5-1.7h-.1l-.3 1.5h-1.8V12h2.4v4c0 .5 0 1.2-.1 2.1h.1c.8-1.2 2-1.8 3.6-1.8 1.5 0 2.7.5 3.5 1.6.8 1.1 1.3 2.6 1.3 4.5 0 1.9-.4 3.5-1.3 4.6-.8 1-2 1.6-3.8 1.6zm-.3-10.1c-1 0-1.7.3-2.2.9-.4.6-.7 1.6-.7 2.9v.4c0 1.5.2 2.6.7 3.2.5.6 1.2.9 2.2.9.9 0 1.6-.3 2-1 .5-.7.7-1.7.7-3 0-1.3-.2-2.3-.7-3-.4-.7-1.1-1.1-2-1.1zm15.1 10.1c-1.8 0-3.2-.5-4.2-1.6-1-1.1-1.5-2.6-1.5-4.5 0-2 .5-3.5 1.6-4.7 1.1-1.1 2.5-1.7 4.4-1.7 1.7 0 3.1.5 4 1.5.9 1 1.4 2.4 1.4 4.1v1.2h-8.7c0 1.2.3 2.2 1 2.8.7.7 1.6 1 2.7 1 1.2 0 2.4-.3 3.6-.8v2c-.6.3-1.1.5-1.7.6-.6.1-1.3.1-2 .1zm-.5-10.5c-.9 0-1.6.3-2.1.8-.5.5-.9 1..3-1 2.3h5.9c0-1-.3-1.8-.8-2.3-.5-.5-1.2-.8-2-.8z" fill="white"/>
</svg>